<svg width="32" height="32" viewBox="0 0 32 32" fill="none" xmlns="http://www.w3.org/2000/svg">
<g id="Component 1">
<path id="XMLID_894_" d="M13 17H18.004V13H7.542L9.058 9.606C9.217 9.238 9.578 9 9.978 9H16.148C15.955 7.989 15.952 7.032 16.152 6H9.978C8.376 6 6.933 6.952 6.302 8.424L4.134 13.484C2.871 14.157 2 15.472 2 17V19C2 20.474 2.81 21.75 4 22.444V26C4 27.103 4.897 28 6 28H9C10.103 28 11 27.103 11 26V23H18.004V19H13C12.448 19 12 18.552 12 18C12 17.448 12.448 17 13 17ZM7.5 20.5C6.119 20.5 5 19.381 5 18C5 16.619 6.119 15.5 7.5 15.5C8.881 15.5 10 16.619 10 18C10 19.381 8.881 20.5 7.5 20.5Z" fill="#388FF3"/>
<path id="XMLID_948_" d="M29.922 6.47706C29.509 4.11006 27.523 2.41706 26.385 2.07206C26.193 2.01406 26.004 2.16606 26.004 2.36606V7.38306C26.004 7.76206 25.79 8.10806 25.451 8.27706L24.451 8.77706C24.169 8.91806 23.838 8.91806 23.557 8.77706L22.557 8.27706C22.218 8.10806 22.004 7.76106 22.004 7.38306V2.36606C22.004 2.16506 21.814 2.01306 21.621 2.07206C20.482 2.42506 18.497 4.14406 18.087 6.49106C17.735 8.50706 18.491 10.4841 19.684 11.6781C19.88 11.8741 20.003 12.1271 20.003 12.4041V26.0011C20.003 28.2091 21.793 29.9991 24.001 29.9991C26.209 29.9991 27.999 28.2091 27.999 26.0011L28.002 12.4091C28.002 12.1291 28.129 11.8711 28.327 11.6721C29.528 10.4721 30.273 8.48606 29.922 6.47706ZM24.009 27.5001C23.181 27.5001 22.509 26.8281 22.509 26.0001C22.509 25.1721 23.181 24.5001 24.009 24.5001C24.837 24.5001 25.509 25.1721 25.509 26.0001C25.509 26.8281 24.837 27.5001 24.009 27.5001Z" fill="#388FF3"/>
</g>
</svg>
