<svg width="32" height="32" viewBox="0 0 32 32" fill="none" xmlns="http://www.w3.org/2000/svg">
<g id="Component 1">
<path id="Vector" d="M30.4758 14.0116C30.2887 13.6997 28.4416 12.9019 28.4416 12.9019C28.7629 12.736 28.9825 12.7017 28.9825 12.0155C28.9825 11.267 28.9787 11.0175 28.4797 11.0175H26.7868C26.7799 11.0025 26.7724 10.9869 26.7655 10.9713C25.6727 8.58473 25.5261 7.98153 23.8961 7.16937C21.7098 6.08211 17.6109 6.02722 16.0041 6.02722C14.3972 6.02722 10.2983 6.08211 8.11385 7.16937C6.48203 7.98028 6.52258 8.39759 5.24448 10.9713C5.24448 10.9782 5.23138 10.9963 5.21952 11.0175H3.52471C3.02943 11.0175 3.02568 11.267 3.02568 12.0155C3.02568 12.7017 3.24525 12.736 3.5665 12.9019C3.5665 12.9019 1.78186 13.7621 1.53235 14.0116C1.28284 14.2611 1.03333 16.0077 1.03333 19.0019C1.03333 21.996 1.28284 24.9902 1.28284 24.9902H2.02763C2.02763 25.8635 2.15613 25.9882 2.5304 25.9882H7.52063C7.8949 25.9882 8.01966 25.8635 8.01966 24.9902H23.9885C23.9885 25.8635 24.1132 25.9882 24.4875 25.9882H29.6025C29.852 25.9882 29.9768 25.8011 29.9768 24.9902H30.7253C30.7253 24.9902 30.9748 21.9337 30.9748 19.0019C30.9748 16.0701 30.6629 14.3235 30.4758 14.0116ZM7.84874 16.8149C6.71271 16.9391 5.57079 17.0028 4.42794 17.0058C3.15418 17.0058 3.11052 17.0875 3.02069 16.2922C2.9869 15.9281 2.99759 15.5613 3.05251 15.1999L3.0918 15.0097H3.27894C4.02748 15.0097 4.73048 15.0415 6.05789 15.4326C6.73304 15.6352 7.36805 15.953 7.93482 16.372C8.20679 16.5691 8.26917 16.7563 8.26917 16.7563L7.84874 16.8149ZM23.2661 21.3061L22.9904 21.996H9.01771C9.01771 21.996 9.04203 21.958 8.70582 21.2986C8.4563 20.8108 8.76819 20.499 9.26161 20.3218C10.2172 19.9775 13.0099 19.0019 16.0041 19.0019C18.9982 19.0019 21.8464 19.8427 22.7721 20.3218C23.1152 20.499 23.5412 20.6237 23.2661 21.3099V21.3061ZM7.23494 12.7896C7.03346 12.8012 6.83154 12.8027 6.62987 12.794C6.79268 12.5046 6.88312 12.1821 7.04219 11.8452C7.54121 10.7848 8.11198 9.58465 9.12812 9.07876C10.5965 8.34769 13.6399 8.01833 16.0041 8.01833C18.3682 8.01833 21.4116 8.34519 22.88 9.07876C23.8961 9.58465 24.4644 10.7854 24.9659 11.8452C25.1262 12.1852 25.2154 12.5102 25.3826 12.8015C25.2579 12.8084 25.1144 12.8015 24.7719 12.7896H7.23494ZM28.9251 16.2897C28.7916 17.0682 28.9163 17.0058 27.5802 17.0058C26.4374 17.0028 25.2955 16.9391 24.1594 16.8149C23.9816 16.7831 23.9311 16.483 24.0733 16.372C24.6373 15.9483 25.2731 15.6301 25.9503 15.4326C27.2777 15.0415 28.025 14.9891 28.7629 15.0153C28.8125 15.0172 28.8596 15.0374 28.8952 15.0719C28.9308 15.1064 28.9523 15.153 28.9556 15.2024C28.9909 15.5655 28.9807 15.9316 28.9251 16.2922V16.2897Z" fill="#388FF3"/>
</g>
</svg>
