<svg width="20" height="32" viewBox="0 0 20 32" fill="none" xmlns="http://www.w3.org/2000/svg">
<g id="Group">
<path id="Vector" d="M19.0037 0.96043C19.0037 0.429997 18.5737 0 18.0433 0H1.95677C1.42633 0 0.996338 0.429997 0.996338 0.96043V10.6549H19.0038L19.0037 0.96043ZM5.21562 7.83657C5.21562 8.35431 4.79587 8.77406 4.27812 8.77406C3.76038 8.77406 3.34063 8.35431 3.34063 7.83657V5.44196C3.34063 4.92421 3.76038 4.50447 4.27812 4.50447C4.79587 4.50447 5.21562 4.92421 5.21562 5.44196V7.83657Z" fill="#388FF3"/>
<path id="Vector_2" d="M0.996338 28.9162C0.996338 29.4467 1.42633 29.8766 1.95677 29.8766H2.63451V31.0625C2.63451 31.5802 3.05426 31.9999 3.57201 31.9999C4.08975 31.9999 4.5095 31.5802 4.5095 31.0625V29.8766H15.3785V31.0625C15.3785 31.5802 15.7982 31.9999 16.316 31.9999C16.8337 31.9999 17.2535 31.5802 17.2535 31.0625V29.8766H18.0433C18.5737 29.8766 19.0037 29.4467 19.0037 28.9162V12.5298H0.996338V28.9162ZM3.34063 15.3801C3.34063 14.8623 3.76038 14.4426 4.27812 14.4426C4.79587 14.4426 5.21562 14.8623 5.21562 15.3801V17.7748C5.21562 18.2926 4.79587 18.7123 4.27812 18.7123C3.76038 18.7123 3.34063 18.2926 3.34063 17.7748V15.3801Z" fill="#388FF3"/>
</g>
</svg>
