<svg width="32" height="32" viewBox="0 0 32 32" fill="none" xmlns="http://www.w3.org/2000/svg">
<g id="Component 1">
<path id="Vector" d="M17.2035 2.40002H13.5021C13.0601 2.40002 12.7021 2.7581 12.7021 3.20002V4.40674H10.2445C9.80254 4.40674 9.44446 4.76482 9.44446 5.20674C9.44446 5.64866 9.80254 6.00674 10.2445 6.00674H20.4608C20.9027 6.00674 21.2608 5.64866 21.2608 5.20674C21.2608 4.76482 20.9027 4.40674 20.4608 4.40674H18.0032V3.20002C18.0035 2.7581 17.6454 2.40002 17.2035 2.40002ZM16.4035 4.40674H14.3024V4.00002H16.4035V4.40674Z" fill="#388FF3"/>
<path id="Vector_2" d="M7.58114 7.12538C7.4493 7.4057 7.4909 7.73658 7.6877 7.97562L9.76322 10.4918L10.8093 20.0035C10.8048 20.0102 9.52386 22.6262 9.52194 22.6307C9.48354 22.7126 9.45922 22.807 9.44802 22.8947L8.8941 28.7247C8.87298 28.9491 8.94722 29.1718 9.0989 29.3385C9.25058 29.5052 9.46562 29.6003 9.6909 29.6003H21.0154C21.2407 29.6003 21.4557 29.5052 21.6074 29.3385C21.7591 29.1718 21.8333 28.9491 21.8122 28.7247L21.2576 22.8943C21.2474 22.8063 21.2208 22.7097 21.1837 22.6303C21.1837 22.6303 19.8992 20.015 19.896 20.0028L20.1776 17.4252L21.5459 16.7507C22.6416 16.2102 23.4224 15.1689 23.6339 13.9651L24.4611 9.25914C24.5744 8.61402 24.3981 7.95706 23.977 7.45562C23.5562 6.95418 22.9389 6.6665 22.2842 6.6665H20.4608H8.30498C7.99522 6.6665 7.7133 6.84538 7.58114 7.12538ZM21.1783 8.2665H22.2842C22.5315 8.2665 22.6832 8.40314 22.7517 8.48442C22.8199 8.5657 22.9283 8.7385 22.8855 8.98234L22.0583 13.6879C21.9344 14.3913 21.4781 14.9999 20.8381 15.3158L20.3834 15.5401L21.1783 8.2665ZM19.5687 8.2665L19.2147 11.5062C19.0915 11.4406 18.9741 11.3564 18.8349 11.2553C18.4231 10.9558 17.8595 10.5459 16.8343 10.5459C15.8093 10.5459 15.2455 10.9558 14.8339 11.2553C14.4883 11.5065 14.2797 11.6585 13.7747 11.6585C13.2707 11.6585 13.0621 11.5065 12.7165 11.2553C12.4051 11.0287 12.0058 10.7395 11.3859 10.6118L11.3274 10.0796C11.3101 9.92506 11.2483 9.7785 11.1491 9.65818L10.0013 8.2665H19.5687Z" fill="#388FF3"/>
</g>
</svg>
