<svg width="32" height="32" viewBox="0 0 32 32" fill="none" xmlns="http://www.w3.org/2000/svg">
<g id="Component 1" clip-path="url(#clip0_515_227)">
<path id="Vector" d="M2.113 19.9437C1.32749 19.9441 0.571554 19.6442 0 19.1053L0 21.9195C0 22.2533 0.132625 22.5735 0.368698 22.8096C0.604771 23.0457 0.924955 23.1783 1.25881 23.1783H17.1784V19.9437H2.113Z" fill="#388FF3"/>
<path id="Vector_2" d="M17.1784 24.1562H12.4447V26.3043C12.4447 26.9881 12.4447 28.5894 9.09571 28.5894H8.08321C8.01853 28.5886 7.95434 28.6008 7.89437 28.625C7.83439 28.6492 7.77983 28.6852 7.73383 28.7306C7.68783 28.7761 7.65131 28.8303 7.62638 28.89C7.60146 28.9497 7.58862 29.0137 7.58862 29.0784C7.58862 29.1431 7.60146 29.2071 7.62638 29.2668C7.65131 29.3265 7.68783 29.3807 7.73383 29.4262C7.77983 29.4717 7.83439 29.5076 7.89437 29.5318C7.95434 29.5561 8.01853 29.5682 8.08321 29.5674H17.2217C17.1931 29.401 17.1786 29.2325 17.1784 29.0636V24.1562Z" fill="#388FF3"/>
<path id="Vector_3" d="M20.1657 4.36873H30.0125C30.4559 4.36828 30.8939 4.46718 31.2941 4.65817L31.2977 2.20942C31.2979 2.04394 31.2655 1.88002 31.2024 1.72706C31.1392 1.5741 31.0465 1.43509 30.9296 1.31799C30.8127 1.20088 30.6738 1.10798 30.5209 1.0446C30.3681 0.98122 30.2042 0.9486 30.0387 0.948608H1.25985C1.09451 0.948608 0.930778 0.98118 0.778021 1.04446C0.625263 1.10775 0.486468 1.2005 0.369561 1.31743C0.252655 1.43436 0.159928 1.57317 0.0966747 1.72594C0.0334219 1.87871 0.000882718 2.04245 0.000915552 2.2078V16.8535C0.000907344 17.1309 0.0555314 17.4056 0.161669 17.6618C0.267806 17.9181 0.423378 18.1509 0.619502 18.347C0.815626 18.5432 1.04846 18.6987 1.30471 18.8049C1.56096 18.911 1.83561 18.9657 2.11298 18.9657H17.1784V7.35623C17.1792 6.56419 17.4942 5.80481 18.0542 5.24473C18.6143 4.68465 19.3736 4.36961 20.1657 4.36873Z" fill="#388FF3"/>
<path id="Vector_4" d="M30.0125 5.36877H20.1657C19.6385 5.36877 19.133 5.57817 18.7603 5.9509C18.3876 6.32363 18.1782 6.82916 18.1782 7.35627V29.0638C18.1782 29.5909 18.3876 30.0964 18.7603 30.4691C19.133 30.8419 19.6385 31.0513 20.1657 31.0513H30.0125C30.5396 31.0513 31.0451 30.8419 31.4178 30.4691C31.7906 30.0964 32 29.5909 32 29.0638V7.35627C32 6.82916 31.7906 6.32363 31.4178 5.9509C31.0451 5.57817 30.5396 5.36877 30.0125 5.36877ZM25.7087 29.8053H24.4696C24.337 29.8053 24.2098 29.7526 24.116 29.6588C24.0223 29.5651 23.9696 29.4379 23.9696 29.3053C23.9696 29.1727 24.0223 29.0455 24.116 28.9517C24.2098 28.858 24.337 28.8053 24.4696 28.8053H25.7087C25.8413 28.8053 25.9685 28.858 26.0623 28.9517C26.156 29.0455 26.2087 29.1727 26.2087 29.3053C26.2087 29.4379 26.156 29.5651 26.0623 29.6588C25.9685 29.7526 25.8413 29.8053 25.7087 29.8053ZM27.641 7.8379H22.5375C22.4049 7.8379 22.2777 7.78522 22.1839 7.69145C22.0902 7.59768 22.0375 7.47051 22.0375 7.3379C22.0375 7.20529 22.0902 7.07811 22.1839 6.98435C22.2777 6.89058 22.4049 6.8379 22.5375 6.8379H27.6411C27.7737 6.8379 27.9009 6.89058 27.9947 6.98435C28.0884 7.07811 28.1411 7.20529 28.1411 7.3379C28.1411 7.47051 28.0884 7.59768 27.9947 7.69145C27.9009 7.78522 27.7737 7.8379 27.6411 7.8379H27.641Z" fill="#388FF3"/>
</g>
<defs>
<clipPath id="clip0_515_227">
<rect width="32" height="32" fill="white"/>
</clipPath>
</defs>
</svg>
