<svg width="32" height="30" viewBox="0 0 32 30" fill="none" xmlns="http://www.w3.org/2000/svg">
<g id="Group">
<path id="Vector" d="M15.9909 3.21824C9.01587 -2.88242 0.14723 2.4778 0.00180337 9.74443C-0.0352563 11.5964 0.499328 13.4003 1.56343 15.0633H8.46066L9.68744 13.0186C10.0437 12.425 10.9057 12.4059 11.2821 12.9977L13.8705 17.0651L17.6435 9.09998C17.9726 8.40497 18.9532 8.38291 19.3161 9.05686L22.5503 15.0633H30.4184C36.2468 5.95403 24.7279 -4.42336 15.9909 3.21824Z" fill="#388FF3"/>
<path id="Vector_2" d="M21.1651 16.4452L18.5443 11.578L14.8382 19.4018C14.5229 20.0674 13.5956 20.1252 13.2002 19.5038L10.5148 15.2839L9.79525 16.4831C9.62582 16.7654 9.32072 16.9382 8.99143 16.9382H3.04639C3.23275 17.1332 2.23951 16.142 15.3297 29.1644C15.6953 29.5281 16.2863 29.5282 16.652 29.1644C29.5407 16.3423 28.7493 17.1328 28.9353 16.9382H21.9904C21.6455 16.9382 21.3286 16.7489 21.1651 16.4452Z" fill="#388FF3"/>
</g>
</svg>
