<svg width="32" height="32" viewBox="0 0 32 32" fill="none" xmlns="http://www.w3.org/2000/svg">
<g id="Component 1" clip-path="url(#clip0_515_1485)">
<path id="Vector" d="M31.7498 12.832C31.5239 9.50903 30.1223 6.41577 27.7446 4.03809C25.1406 1.43408 21.6785 0 17.9956 0C17.468 0 17.0405 0.427734 17.0405 0.955322V12.832H31.7498Z" fill="#388FF3"/>
<path id="Vector_2" d="M6.11938 12.832V12.1118C6.11938 9.97363 4.37988 8.23413 2.2417 8.23413H1.26782C0.740234 8.23413 0.3125 8.66187 0.3125 9.18945C0.3125 9.71704 0.740234 10.1445 1.26782 10.1445H2.2417C3.32642 10.1445 4.20898 11.0271 4.20898 12.1118V12.832H6.11938Z" fill="#388FF3"/>
<path id="Vector_3" d="M26.5813 19.7722C28.1138 19.7722 29.5334 20.2627 30.6929 21.0942C31.5205 19.7703 31.9111 18.2905 31.783 16.8782V14.7424H4.20874V16.9233C4.20874 18.2273 4.51343 19.4612 5.05444 20.5583C6.0249 20.0564 7.12573 19.7722 8.29175 19.7722C11.6145 19.7722 14.4087 22.0769 15.1611 25.1716H19.7119C20.4644 22.0769 23.2585 19.7722 26.5813 19.7722Z" fill="#388FF3"/>
<path id="Vector_4" d="M8.29175 21.6829C5.44727 21.6829 3.13306 23.9968 3.13306 26.8413C3.13306 29.6858 5.44727 32 8.29175 32C11.1362 32 13.4504 29.6858 13.4504 26.8413C13.4504 23.9968 11.1362 21.6829 8.29175 21.6829ZM8.29175 29.9351C6.58594 29.9351 5.198 28.5474 5.198 26.8413C5.198 25.1355 6.58594 23.7478 8.29175 23.7478C9.99756 23.7478 11.3855 25.1355 11.3855 26.8413C11.3855 28.5474 9.99756 29.9351 8.29175 29.9351Z" fill="#388FF3"/>
<path id="Vector_5" d="M8.29175 25.6582C7.63916 25.6582 7.1084 26.189 7.1084 26.8413C7.1084 27.4939 7.63916 28.0247 8.29175 28.0247C8.94434 28.0247 9.4751 27.4939 9.4751 26.8413C9.4751 26.189 8.94409 25.6582 8.29175 25.6582Z" fill="#388FF3"/>
<path id="Vector_6" d="M31.74 26.8413C31.74 23.9968 29.4258 21.6829 26.5813 21.6829C23.7368 21.6829 21.4226 23.9968 21.4226 26.8413C21.4226 29.6858 23.7368 32 26.5813 32C29.4258 32 31.74 29.6858 31.74 26.8413ZM26.5813 29.9351C24.8755 29.9351 23.4875 28.5474 23.4875 26.8413C23.4875 25.1355 24.8755 23.7478 26.5813 23.7478C28.2871 23.7478 29.675 25.1355 29.675 26.8413C29.675 28.5474 28.2871 29.9351 26.5813 29.9351Z" fill="#388FF3"/>
<path id="Vector_7" d="M26.5813 25.6582C25.9287 25.6582 25.3979 26.189 25.3979 26.8413C25.3979 27.4939 25.9287 28.0247 26.5813 28.0247C27.2339 28.0247 27.7646 27.4939 27.7646 26.8413C27.7646 26.189 27.2339 25.6582 26.5813 25.6582Z" fill="#388FF3"/>
</g>
<defs>
<clipPath id="clip0_515_1485">
<rect width="32" height="32" fill="white"/>
</clipPath>
</defs>
</svg>
