<svg width="138" height="72" viewBox="0 0 138 72" fill="none" xmlns="http://www.w3.org/2000/svg">
<g id="logo">
<rect width="138" height="72" rx="10" fill="#388FF3"/>
<rect id="Rectangle 260" x="6.5" y="6.5" width="125" height="59" rx="4.5" stroke="white" stroke-width="5"/>
<g id="77.uz">
<path d="M41.4239 27.636L30.5159 48.66H23.9999L33.8639 29.76H23.9999V24H41.4239V27.636Z" fill="white"/>
<path d="M61.8146 27.636L50.9066 48.66H44.3906L54.2546 29.76H44.3906V24H61.8146V27.636Z" fill="white"/>
<path d="M66.0772 43.98C66.7012 43.428 67.4692 43.152 68.3812 43.152C69.2932 43.152 70.0612 43.428 70.6852 43.98C71.3332 44.532 71.6572 45.216 71.6572 46.032C71.6572 46.848 71.3332 47.532 70.6852 48.084C70.0612 48.636 69.2932 48.912 68.3812 48.912C67.4692 48.912 66.7012 48.636 66.0772 48.084C65.4532 47.532 65.1412 46.848 65.1412 46.032C65.1412 45.216 65.4532 44.532 66.0772 43.98Z" fill="white"/>
<path d="M93.8765 48.66H90.2045L89.7725 46.5C88.5485 48.108 86.6645 48.912 84.1205 48.912C81.5525 48.912 79.5965 48.108 78.2525 46.5C76.9085 44.892 76.2365 42.744 76.2365 40.056V30.66H81.8525V39.732C81.8525 42.228 82.9085 43.476 85.0205 43.476C87.1805 43.476 88.2605 42.192 88.2605 39.624V30.66H93.8765V48.66Z" fill="white"/>
<path d="M113.589 48.66H98.4693L98.5053 44.304L105.345 36.096H98.9733V30.66H113.265L113.229 35.016L106.389 43.224H113.589V48.66Z" fill="white"/>
</g>
</g>
</svg>
