<svg width="32" height="32" viewBox="0 0 32 32" fill="none" xmlns="http://www.w3.org/2000/svg">
<g id="Group">
<g id="Group_2">
<path id="Vector" d="M26.324 24.06L21.216 22.7827L20.7813 21.044C22.148 19.6907 23.084 17.832 23.3613 15.9253C24.1186 15.712 24.7053 15.0626 24.8066 14.248L25.1399 11.5813C25.2106 11.0186 25.0372 10.4493 24.6639 10.0226C24.4452 9.77194 24.1693 9.58263 23.8639 9.46663L23.9866 6.95594L24.4853 6.45594C25.236 5.65725 25.8586 4.28794 24.5573 2.30125C23.5573 0.774688 21.8587 0 19.5067 0C18.5787 0 16.4427 0 14.4534 1.336C8.77331 1.45469 8 4.09331 8 6.66669C8 7.26538 8.14531 8.61337 8.24131 9.42669C7.89862 9.53469 7.588 9.73469 7.34531 10.0107C6.96531 10.4414 6.78931 11.0134 6.86 11.5827L7.19331 14.2494C7.30263 15.1187 7.96263 15.8027 8.79731 15.9654C9.07331 17.7987 9.96131 19.5974 11.2493 20.9281L10.7853 22.7854L5.67731 24.0627C2.33331 24.896 0 27.8853 0 31.3333C0 31.7013 0.298687 32 0.666687 32H31.3334C31.7014 32 32.0001 31.6987 32.0001 31.3307C32 27.8853 29.6667 24.896 26.324 24.06Z" fill="#388FF3"/>
</g>
</g>
</svg>
