<svg width="32" height="24" viewBox="0 0 32 24" fill="none" xmlns="http://www.w3.org/2000/svg">
<g id="_x31_8_Motorcycle">
<g id="Group">
<path id="Vector" d="M18.6767 5.49839C18.7967 5.3517 18.9301 5.22177 19.0734 5.10508C16.2654 4.53283 14.6211 5.71814 12.9901 7.58839C15.9981 7.90758 16.699 7.86914 18.6767 5.49839Z" fill="#388FF3"/>
<path id="Vector_2" d="M26.6399 12.9416C25.8292 12.9416 25.063 13.128 24.3736 13.4519L23.3901 11.8915C25.2464 10.9317 26.6736 11.3386 28.4267 11.2417C29.0567 11.2417 29.61 10.8884 29.8766 10.3184C30.1433 9.74838 30.0566 9.09507 29.6533 8.61507L24.0466 1.92838C23.5366 1.32169 22.71 1.14507 22.0199 1.45169H22.0166L19.8 0.405006C19.47 0.248381 19.07 0.391694 18.9134 0.725006C18.7567 1.05832 18.9001 1.45501 19.2333 1.61169L21.0733 2.48169C20.8676 3.01632 20.9749 3.70838 21.41 4.19832L23.1767 6.20501C23.2867 6.32832 23.2834 6.51501 23.17 6.63494C23.0633 6.74826 22.8934 6.76832 22.7633 6.68163L21.78 6.03832C21.11 5.59832 20.2167 5.73169 19.7 6.35163C17.27 9.26494 16.04 9.27494 12.5267 8.87494C11.1866 8.71826 10.1034 8.24494 9.30675 7.46494C7.98675 6.17163 6.40344 5.36826 4.73012 5.14501L2.2235 4.81169C1.26706 4.68001 0.406812 5.42901 0.406812 6.40169C0.406812 6.98501 0.723437 7.52176 1.2335 7.80501C2.53687 8.52832 6.92681 10.9683 8.58019 12.025C8.97169 12.2748 9.30044 12.5601 9.58619 12.8658L8.5245 13.987C7.636 13.333 6.54275 12.9417 5.35681 12.9417C2.40337 12.9417 0 15.3451 0 18.3017C0 21.255 2.40337 23.6584 5.35669 23.6584C8.31331 23.6584 10.7167 21.255 10.7167 18.3017C10.7167 17.0109 10.2583 15.8258 9.49612 14.8998L10.379 13.9674C11.2306 15.5583 11.2234 17.4123 11.0933 18.5984C10.9599 19.7849 11.8955 20.8151 13.08 20.8151H17.43C18.32 20.8151 19.1134 20.2151 19.3566 19.3584L20.4533 15.4751C20.7732 14.3411 21.4257 13.3657 22.2829 12.6362L23.2436 14.1603C22.0477 15.1439 21.2833 16.6347 21.2833 18.3018C21.2833 21.2551 23.6866 23.6584 26.6399 23.6584C29.5966 23.6584 31.9999 21.2551 31.9999 18.3018C32 15.345 29.5966 12.9416 26.6399 12.9416ZM8.0495 18.3004C8.0495 19.7845 6.84219 20.9919 5.35806 20.9919C3.87369 20.9919 2.66631 19.7846 2.66631 18.3004C2.66631 16.8164 3.87362 15.609 5.35806 15.609C5.83256 15.609 6.27806 15.7335 6.66562 15.9499L5.68425 16.9864C5.57925 16.9602 5.47106 16.9423 5.35812 16.9423C4.60906 16.9423 3.99969 17.5515 3.99969 18.3004C3.99969 19.0493 4.60906 19.6584 5.35812 19.6584C6.10681 19.6584 6.71619 19.0493 6.71619 18.3004C6.71619 18.1619 6.68925 18.0309 6.65056 17.9049L7.63262 16.8678C7.89519 17.2833 8.0495 17.7737 8.0495 18.3004ZM26.6416 20.9919C25.1575 20.9919 23.9501 19.7846 23.9501 18.3004C23.9501 17.5852 24.2324 16.936 24.6891 16.4534L25.4506 17.6615C25.3474 17.8528 25.2834 18.0683 25.2834 18.3004C25.2834 19.0493 25.8928 19.6585 26.6415 19.6585C27.3902 19.6585 27.9996 19.0493 27.9996 18.3004C27.9996 17.5515 27.3902 16.9424 26.6415 16.9424C26.6197 16.9424 26.5993 16.9478 26.5777 16.9488L25.8157 15.7399C26.0761 15.6556 26.3534 15.609 26.6415 15.609C28.1256 15.609 29.3329 16.8163 29.3329 18.3004C29.333 19.7845 28.1256 20.9919 26.6416 20.9919Z" fill="#388FF3"/>
</g>
</g>
</svg>
