<svg width="32" height="32" viewBox="0 0 32 32" fill="none" xmlns="http://www.w3.org/2000/svg">
<g id="Component 1" clip-path="url(#clip0_515_1587)">
<path id="Vector" d="M7.13867 0.00756836L0 7.14624L5.1521 12.2983L7.54468 9.90552L8.87012 11.231L6.47754 13.6235L7.79492 14.9412L14.9336 7.80249L7.13867 0.00756836ZM7.65259 7.65967C7.448 7.86426 7.17603 7.97705 6.88696 7.97705C6.5979 7.97705 6.32617 7.8645 6.12158 7.66016C5.69946 7.23779 5.69946 6.55103 6.12158 6.12915C6.32617 5.92456 6.5979 5.81201 6.88696 5.81201C7.17603 5.81201 7.448 5.92456 7.65234 6.12891C8.07446 6.55103 8.07446 7.23755 7.65259 7.65967Z" fill="#388FF3"/>
<path id="Vector_2" d="M17.052 24.198L18.3816 25.5276L20.7803 23.1289L22.1057 24.4543L19.707 26.853L21.0242 28.1702L23.4229 25.7715L24.7483 27.0969L22.3496 29.4956L24.854 32L31.9927 24.8613L24.1909 17.0593L17.052 24.198Z" fill="#388FF3"/>
<path id="Vector_3" d="M31.9966 0L21.9509 3.89648L28.1003 10.0457L31.9966 0Z" fill="#388FF3"/>
<path id="Vector_4" d="M2.37695 23.0093L0.859375 24.5266C0.312012 25.0742 0.0102539 25.8022 0.0102539 26.5767C0.0102539 27.3511 0.312012 28.0789 0.859375 28.6267L3.36987 31.1372C3.91748 31.6848 4.64551 31.9863 5.41992 31.9863C6.19434 31.9863 6.92236 31.6848 7.46997 31.1372L8.9873 29.6199L2.37695 23.0093Z" fill="#388FF3"/>
<path id="Vector_5" d="M23.0376 7.63379L20.395 4.99097L3.70215 21.6838L6.34497 24.3264L23.0376 7.63379Z" fill="#388FF3"/>
<path id="Vector_6" d="M23.7932 14.814L27.0056 11.6016L24.363 8.95898L7.67017 25.6519L10.3127 28.2944L23.7932 14.814Z" fill="#388FF3"/>
</g>
<defs>
<clipPath id="clip0_515_1587">
<rect width="32" height="32" fill="white"/>
</clipPath>
</defs>
</svg>
