<svg width="32" height="14" viewBox="0 0 32 14" fill="none" xmlns="http://www.w3.org/2000/svg">
<g id="Group">
<g id="Group_2">
<path id="Vector" d="M28.5314 10.1422H28.1127C26.2505 10.1422 24.4329 9.53975 22.9409 8.43744L20.6119 10.7665L19.2854 9.44L21.4824 7.24294L20.3859 6.33037L17.963 8.75331L16.6365 7.42681L18.938 5.12531L17.8414 4.21269L15.3141 6.74006L13.9876 5.41356L16.3936 3.00756L14.263 1.23431C13.9947 1.011 13.6548 0.888062 13.3057 0.888062C12.4806 0.888062 11.8093 1.55931 11.8093 2.38444V3.19912C11.8093 5.88512 9.62406 8.07037 6.93806 8.07037C5.05275 8.07037 3.31975 6.96625 2.52306 5.2575L2.29375 4.76575C2.09694 4.34362 1.66887 4.07081 1.20312 4.07081C0.53975 4.07081 0 4.61056 0 5.27412V13.2947H32C31.8321 11.5286 30.3408 10.1422 28.5314 10.1422Z" fill="#388FF3"/>
</g>
</g>
</svg>
