<svg width="30" height="32" viewBox="0 0 30 32" fill="none" xmlns="http://www.w3.org/2000/svg">
<g id="Layer_x0020_1">
<path id="Vector" fill-rule="evenodd" clip-rule="evenodd" d="M27.5577 23.4787H5.93639C5.81583 23.4787 5.70276 23.4206 5.63226 23.3231L0.941182 16.8193C0.0550534 15.5908 0.964057 13.8873 2.43894 13.8873C3.03482 13.8873 3.59694 14.1738 3.94307 14.6536L7.63833 19.7765H27.5575C28.578 19.7765 29.4081 20.6068 29.4081 21.6274C29.4081 22.6479 28.5784 23.4789 27.5578 23.4789L27.5577 23.4787Z" fill="#388FF3"/>
<path id="Vector_2" fill-rule="evenodd" clip-rule="evenodd" d="M26.1801 25.52H7.48609C7.27908 25.52 7.11108 25.3518 7.11108 25.145V23.1033C7.11108 22.8963 7.27908 22.7283 7.48609 22.7283H26.1801C26.3871 22.7283 26.5551 22.8965 26.5551 23.1033V25.145C26.5551 25.3518 26.3871 25.52 26.1801 25.52Z" fill="#388FF3"/>
<path id="Vector_3" fill-rule="evenodd" clip-rule="evenodd" d="M8.7472 32C7.84382 32 7.35388 31.105 7.75532 29.7247L9.11808 25.0401C9.25345 24.5746 9.95077 24.7686 9.84464 25.2246H11.1307L11.1843 25.0403C11.3221 24.5661 12.0425 24.776 11.9045 25.25L11.5719 26.3931H22.0939C21.8814 25.6626 21.5081 24.9333 22.0164 24.7851C22.3759 24.6803 22.473 25.0118 22.5313 25.2123H23.8178C23.7276 24.7651 24.4129 24.5787 24.547 25.0401L25.9097 29.7247C26.7255 32.5293 23.9023 32.6124 23.3348 30.6607L22.7764 28.7422H10.8883L10.3303 30.6607C10.1137 31.4043 9.46627 32.0002 8.74701 32.0002L8.7472 32Z" fill="#388FF3"/>
<path id="Vector_4" fill-rule="evenodd" clip-rule="evenodd" d="M7.38691 12.8707C6.96616 12.8707 6.96822 12.3187 6.85947 11.7767C6.57972 10.3828 6.60503 9.02867 6.88179 7.76492C9.1768 7.10585 10.7286 7.32485 11.5579 7.35035C11.6087 9.22105 11.8935 10.4706 12.2509 12.2786C11.5161 12.1582 10.079 11.8438 7.61023 12.813L7.38691 12.8707ZM7.10472 6.93016C8.04598 3.95809 10.4081 1.58977 13.4299 0.559264C12.2826 1.62839 11.6096 3.83321 11.5549 6.50435C10.1842 6.2966 8.32085 6.62435 7.10472 6.93035V6.93016ZM16.0806 0.0265743C19.3433 -0.200864 22.3585 1.07733 24.3524 3.41265C23.0573 3.60053 21.2046 4.01453 20.0614 4.70566C19.282 2.9169 17.7043 0.630889 16.0808 0.0263868L16.0806 0.0265743ZM24.8856 4.09778C25.6551 5.18434 26.2105 6.44697 26.4893 7.83579C26.6164 8.46842 26.8851 9.06674 26.1964 9.08136C23.4184 9.1408 22.2672 10.0564 21.6535 10.4269C21.3013 8.67186 20.9423 7.01266 20.3747 5.48491C21.132 5.15359 22.5608 4.35915 24.8856 4.09797V4.09778ZM20.9089 10.5285C18.1607 10.1449 15.3662 10.7098 12.9881 12.1414C12.6236 10.2971 12.3392 9.06505 12.3126 7.14298C12.9081 6.69598 15.5123 4.97734 19.6153 5.59103C20.2003 7.11223 20.5572 8.77555 20.9089 10.5285ZM12.3242 6.2201C12.4436 3.2469 13.3526 0.932578 14.7979 0.642702C16.5983 0.2812 18.4607 3.00652 19.2788 4.79003C15.789 4.38765 13.3978 5.53703 12.3242 6.2201Z" fill="#388FF3"/>
<path id="Vector_5" fill-rule="evenodd" clip-rule="evenodd" d="M19.7723 20.527C19.278 20.527 18.501 20.527 17.7325 20.527C17.5575 20.527 17.4011 20.4038 17.3653 20.2256L15.4367 10.6185C15.3791 10.3316 18.0998 9.91197 18.133 10.0777L20.1405 20.0781C20.187 20.3096 20.0081 20.527 19.7723 20.527Z" fill="#388FF3"/>
</g>
</svg>
