<svg width="28" height="32" viewBox="0 0 28 32" fill="none" xmlns="http://www.w3.org/2000/svg">
<g id="Group">
<g id="Group_2">
<g id="Group_3">
<path id="Vector" d="M14.5711 12.8572C14.5711 13.6462 15.2107 14.2857 15.9997 14.2857C16.7886 14.2857 17.4282 13.6462 17.4282 12.8572C17.4282 12.0682 16.7887 11.4286 15.9997 11.4286C15.211 11.4294 14.572 12.0685 14.5711 12.8572Z" fill="#388FF3"/>
<path id="Vector_2" d="M17.9998 10.8571C18.0005 11.488 18.5118 11.9992 19.1426 12C19.7738 12 20.2855 11.4883 20.2855 10.8571C20.2855 10.2259 19.7738 9.71423 19.1426 9.71423C18.5114 9.71423 17.9998 10.2259 17.9998 10.8571Z" fill="#388FF3"/>
<path id="Vector_3" d="M5.9968 6.88637C6.09218 6.86956 6.18868 6.85981 6.28543 6.85718C7.30999 6.86049 8.16568 7.63912 8.26537 8.6588C8.4578 8.60355 8.65674 8.57418 8.85687 8.57143C9.96274 8.57374 10.9082 9.36749 11.1021 10.4562C11.3886 10.3457 11.6927 10.2879 11.9997 10.2857C12.7803 10.2884 13.5169 10.6476 13.9997 11.2608C14.6809 10.3806 15.8599 10.0532 16.8974 10.4562C17.0912 9.36749 18.0367 8.57374 19.1426 8.57143C19.3428 8.57418 19.5417 8.60355 19.7341 8.6588C19.8338 7.63905 20.6894 6.86049 21.7141 6.85718C21.8109 6.85981 21.9073 6.86956 22.0027 6.88637C22.0026 6.87643 21.9997 6.86718 21.9997 6.85718C22.0017 6.57362 22.0749 6.29506 22.2126 6.04718C21.505 5.29456 20.8751 4.47262 20.3323 3.59381L20.3089 3.55893V3.55924C20.0012 3.06481 19.7644 2.62318 19.5866 2.26331C19.2696 2.47856 18.9252 2.65062 18.5628 2.77506C18.5236 2.79424 18.4823 2.80868 18.4397 2.81812C16.9999 3.24862 15.5022 3.45456 13.9997 3.42868C12.4972 3.45456 10.9998 3.24868 9.56005 2.81831C9.51674 2.80881 9.4748 2.79412 9.43499 2.77456C9.07312 2.65024 8.72937 2.47837 8.4128 2.26337C8.23505 2.62324 7.99818 3.06487 7.69049 3.55931V3.55906L7.66705 3.59393C7.1243 4.47281 6.49437 5.29474 5.78687 6.04731C5.92449 6.29524 5.99762 6.57374 5.99962 6.85731C5.99974 6.86718 5.99693 6.87643 5.9968 6.88637Z" fill="#388FF3"/>
<path id="Vector_4" d="M23.714 7.42852C24.0295 7.42852 24.2854 7.17271 24.2854 6.85708C24.2851 6.54164 24.0295 6.28596 23.714 6.28564C23.3984 6.28564 23.1425 6.54146 23.1425 6.85708C23.1425 7.17271 23.3984 7.42852 23.714 7.42852Z" fill="#388FF3"/>
<path id="Vector_5" d="M20.8569 8.85713C20.8574 9.33031 21.2408 9.71375 21.714 9.71425C22.1874 9.71425 22.5711 9.3305 22.5711 8.85713C22.5711 8.38375 22.1874 8 21.714 8C21.2406 8 20.8569 8.38375 20.8569 8.85713Z" fill="#388FF3"/>
<path id="Vector_6" d="M13.9997 2.28569C17.3122 2.28569 19.0254 1.46619 19.1409 1.14281C19.0254 0.8195 17.3122 0 13.9997 0C10.6571 0 8.94337 0.834312 8.85574 1.1515C8.94337 1.45144 10.6571 2.28569 13.9997 2.28569Z" fill="#388FF3"/>
<path id="Vector_7" d="M7.71399 10.8571C7.71399 11.4883 8.22568 12 8.85686 12C9.48805 12 9.99974 11.4883 9.99974 10.8571C9.99974 10.2259 9.48805 9.71423 8.85686 9.71423C8.22599 9.71498 7.71474 10.2262 7.71399 10.8571Z" fill="#388FF3"/>
<path id="Vector_8" d="M12.469 26.9467C13.4609 27.2908 14.5397 27.2907 15.5315 26.9462C25.8964 23.3078 27.4662 11.9437 27.6822 9.5614C26.6578 9.23565 25.6817 8.77409 24.7801 8.18896C24.479 8.43478 24.1027 8.56978 23.714 8.5714C23.704 8.5714 23.6947 8.56859 23.6849 8.56846C23.7016 8.66384 23.7114 8.76034 23.714 8.85715C23.7127 9.96115 22.818 10.8558 21.714 10.8572C21.6172 10.8545 21.5207 10.8448 21.4254 10.828C21.4255 10.838 21.4283 10.8472 21.4283 10.8572C21.427 12.119 20.4044 13.1415 19.1426 13.1428C18.9424 13.1401 18.7436 13.1107 18.5511 13.0555C18.4774 14.1078 17.7636 15.0063 16.7551 15.3161C15.7467 15.6258 14.6516 15.283 13.9998 14.4534C13.3481 15.283 12.2529 15.6258 11.2445 15.3161C10.236 15.0063 9.52218 14.1078 9.44849 13.0555C9.25606 13.1107 9.05712 13.1401 8.85699 13.1428C7.59518 13.1415 6.57262 12.1189 6.57131 10.8572C6.57131 10.8472 6.57412 10.838 6.57424 10.828C6.47887 10.8448 6.38237 10.8545 6.28562 10.8572C5.18162 10.8558 4.28693 9.96115 4.28562 8.85715C4.28824 8.76034 4.29799 8.66384 4.31474 8.56846C4.30487 8.56865 4.29562 8.5714 4.28562 8.5714C3.89699 8.56972 3.52068 8.43471 3.21962 8.18896C2.31806 8.77403 1.34218 9.23559 0.317993 9.56134C0.536556 11.9445 2.11799 23.313 12.469 26.9467Z" fill="#388FF3"/>
<path id="Vector_9" d="M18.3558 30.7026C18.4398 31.006 18.2627 31.3202 17.9596 31.4054C17.6564 31.4906 17.3416 31.3146 17.2553 31.0117C16.9262 29.8352 16.966 28.586 17.3693 27.4327C16.8994 27.6444 16.4178 27.8462 15.9088 28.0249C14.6727 28.454 13.3281 28.4542 12.0919 28.0254C11.5825 27.8467 11.1004 27.6447 10.6303 27.4329C11.0336 28.5861 11.0733 29.8352 10.7443 31.0118C10.6896 31.2091 10.5336 31.362 10.3354 31.4128C10.1371 31.4636 9.92682 31.4046 9.78401 31.2579C9.64119 31.1113 9.58776 30.8995 9.64376 30.7027C9.71619 30.4439 9.76657 30.1794 9.79419 29.9121C7.06519 30.1764 5.88057 30.6234 5.51932 30.8601C6.16382 31.2989 9.02538 32.0001 13.9998 32.0001C18.9741 32.0001 21.8357 31.2989 22.4803 30.8599C22.1189 30.6232 20.9341 30.1762 18.2043 29.9119C18.2325 30.1792 18.2832 30.4437 18.3558 30.7026Z" fill="#388FF3"/>
<path id="Vector_10" d="M6.28544 9.71437C6.75881 9.71437 7.14256 9.33062 7.14256 8.85725C7.14256 8.38387 6.75881 8.00012 6.28544 8.00012C5.81225 8.00062 5.42881 8.38412 5.42831 8.85725C5.42831 9.33056 5.81206 9.71437 6.28544 9.71437Z" fill="#388FF3"/>
<path id="Vector_11" d="M10.5711 12.8572C10.5711 13.6462 11.2107 14.2857 11.9997 14.2857C12.7886 14.2857 13.4282 13.6462 13.4282 12.8572C13.4282 12.0682 12.7887 11.4286 11.9997 11.4286C11.211 11.4294 10.572 12.0685 10.5711 12.8572Z" fill="#388FF3"/>
<path id="Vector_12" d="M4.28543 7.42852C4.60099 7.42852 4.85686 7.17271 4.85686 6.85708C4.85686 6.54146 4.60105 6.28564 4.28543 6.28564C3.96999 6.28596 3.7143 6.54164 3.71399 6.85708C3.71399 7.17271 3.96986 7.42852 4.28543 7.42852Z" fill="#388FF3"/>
</g>
</g>
</g>
</svg>
